<svg width="1967" height="508" viewBox="0 0 1967 508" fill="none" xmlns="http://www.w3.org/2000/svg">
<rect width="1687.66" height="129.574" rx="64.7869" fill="#C4C4C4"/>
<rect x="279" y="188" width="1687.66" height="129.574" rx="64.7869" fill="#C4C4C4"/>
<rect x="15" y="378" width="1687.66" height="129.574" rx="64.7869" fill="#C4C4C4"/>
<path d="M418 189.5C530 159.9 464.667 136.167 418 128H1154V189.5H418Z" fill="#C4C4C4"/>
<path d="M1270.5 128.5C1158.5 158.1 1223.83 181.833 1270.5 190L534.5 190V128.5L1270.5 128.5Z" fill="#C4C4C4"/>
<path d="M570 377.5C682 347.9 616.667 324.167 570 316H1306V377.5H570Z" fill="#C4C4C4"/>
<path d="M1422.5 316.5C1310.5 346.1 1375.83 369.833 1422.5 378L686.5 378V316.5L1422.5 316.5Z" fill="#C4C4C4"/>
</svg>
