<svg width="2088" height="1130" viewBox="0 0 2088 1130" fill="none" xmlns="http://www.w3.org/2000/svg">
<circle cx="825" cy="565" r="549" fill="#B8B8B8" stroke="black" stroke-width="32"/>
<path d="M534.5 1012C249.7 624 413.333 252.167 532 118.5C367.6 212.1 303.764 409.333 291.097 494.5C262.297 792.5 441.333 965 534.5 1012Z" fill="#292929" stroke="black" stroke-width="4"/>
<g opacity="0.85">
<rect x="1557.5" y="819.945" width="1545" height="129.398" rx="64.6991" transform="rotate(180 1557.5 819.945)" fill="#C4C4C4" stroke="black" stroke-width="25"/>
<rect x="1739.5" y="602.898" width="1401" height="129.398" rx="64.6991" transform="rotate(180 1739.5 602.898)" fill="#C4C4C4" stroke="black" stroke-width="25"/>
<rect x="12.5" y="473.5" width="249" height="129" rx="64.5" fill="#C4C4C4" stroke="black" stroke-width="25"/>
<rect x="1689.5" y="693.5" width="249" height="129" rx="64.5" fill="#C4C4C4" stroke="black" stroke-width="25"/>
<rect x="248.5" y="907.5" width="904" height="129" rx="64.5" fill="#C4C4C4" stroke="black" stroke-width="25"/>
<rect x="1826.5" y="473.5" width="249" height="129" rx="64.5" fill="#C4C4C4" stroke="black" stroke-width="25"/>
</g>
</svg>
