<svg width="2179" height="1130" viewBox="0 0 2179 1130" fill="none" xmlns="http://www.w3.org/2000/svg">
<circle cx="565" cy="565" r="565" fill="#FF7A00" fill-opacity="0.11"/>
<circle cx="565" cy="565" r="400.911" fill="#FF7A00" fill-opacity="0.22"/>
<circle cx="565" cy="565" r="211.986" fill="#FF9900" fill-opacity="0.64"/>
<rect x="1661" y="784.445" width="1570" height="154.398" rx="77.1991" transform="rotate(180 1661 784.445)" fill="#C4C4C4"/>
<rect x="1843" y="567.398" width="1426" height="154.398" rx="77.1991" transform="rotate(180 1843 567.398)" fill="#C4C4C4"/>
<path d="M1077.22 567.398C1050.81 594.918 1066.22 622.275 1077.22 632.513H967.955V567.398H1077.22Z" fill="#C4C4C4"/>
<path d="M702.194 632.513C728.6 604.993 713.196 577.636 702.194 567.398H811.458V632.513H702.194Z" fill="#C4C4C4"/>
<rect x="1007.22" y="632.513" width="215.113" height="65.1144" transform="rotate(180 1007.22 632.513)" fill="#C4C4C4"/>
<path d="M1072.46 564.933C1046.06 592.453 1061.46 619.809 1072.46 630.047H963.199V564.933H1072.46Z" fill="#C4C4C4"/>
<path d="M697.438 630.047C723.843 602.527 708.44 575.171 697.438 564.933H806.702V630.047H697.438Z" fill="#C4C4C4"/>
<rect x="1002.47" y="630.047" width="215.113" height="65.1144" transform="rotate(180 1002.47 630.047)" fill="#C4C4C4"/>
<rect x="91" y="413" width="274" height="154" rx="77" fill="#C4C4C4"/>
<rect x="1768" y="633" width="274" height="154" rx="77" fill="#C4C4C4"/>
<rect x="327" y="847" width="929" height="154" rx="77" fill="#C4C4C4"/>
<rect x="1905" y="413" width="274" height="154" rx="77" fill="#C4C4C4"/>
</svg>
