<svg width="1900" height="873" viewBox="0 0 1900 873" fill="none" xmlns="http://www.w3.org/2000/svg">
<rect x="211.763" width="1687.66" height="129.574" rx="64.7869" fill="#C4C4C4"/>
<rect y="364.426" width="1532.87" height="129.574" rx="64.7869" fill="#C4C4C4"/>
<rect x="646.04" y="181.635" width="722.361" height="130.731" rx="65.3653" fill="#C4C4C4"/>
<path d="M839.294 182.15C867.678 159.055 851.12 136.097 839.294 127.505H956.746V182.15H839.294Z" fill="#C4C4C4"/>
<path d="M1242.42 127.505C1214.04 150.6 1230.6 173.558 1242.42 182.15L1124.97 182.15V127.505L1242.42 127.505Z" fill="#C4C4C4"/>
<rect x="914.537" y="127.505" width="231.234" height="54.6452" fill="#C4C4C4"/>
<path d="M828.282 366.495C856.666 343.4 840.109 320.442 828.282 311.85H945.734V366.495H828.282Z" fill="#C4C4C4"/>
<path d="M1231.41 311.85C1203.03 334.945 1219.59 357.903 1231.41 366.495H1113.96V311.85H1231.41Z" fill="#C4C4C4"/>
<rect x="903.525" y="311.85" width="231.234" height="54.6452" fill="#C4C4C4"/>
<rect x="271" y="524.81" width="48" height="162" rx="24" transform="rotate(-20.5 271 524.81)" fill="#2687CE"/>
<path d="M1103.41 537.29C1098.76 524.875 1105.06 511.047 1117.48 506.405V506.405C1129.9 501.763 1143.72 508.065 1148.37 520.48L1188.29 627.261C1192.93 639.676 1186.63 653.504 1174.21 658.146V658.146C1161.8 662.788 1147.97 656.486 1143.33 644.071L1103.41 537.29Z" fill="#2687CE"/>
<rect x="683" y="524.81" width="48" height="162" rx="24" transform="rotate(-20.5 683 524.81)" fill="#2687CE"/>
<path d="M925.405 728.29C920.763 715.875 927.065 702.047 939.48 697.405V697.405C951.896 692.763 965.723 699.065 970.365 711.48L1010.29 818.261C1014.93 830.676 1008.63 844.504 996.214 849.146V849.146C983.798 853.788 969.971 847.486 965.329 835.071L925.405 728.29Z" fill="#2687CE"/>
<path d="M524.139 742.969C519.497 730.554 525.798 716.726 538.214 712.084V712.084C550.629 707.442 564.457 713.744 569.099 726.159L609.022 832.94C613.664 845.356 607.363 859.183 594.947 863.825V863.825C582.532 868.467 568.704 862.165 564.062 849.75L524.139 742.969Z" fill="#2687CE"/>
</svg>
