<svg width="1900" height="1257" viewBox="0 0 1900 1257" fill="none" xmlns="http://www.w3.org/2000/svg">
<rect x="211.763" width="1687.66" height="129.574" rx="64.7869" fill="#C4C4C4"/>
<rect y="364.426" width="1532.87" height="129.574" rx="64.7869" fill="#C4C4C4"/>
<rect x="646.04" y="181.635" width="722.361" height="130.731" rx="65.3653" fill="#C4C4C4"/>
<path d="M839.294 182.15C867.678 159.055 851.12 136.097 839.294 127.505H956.746V182.15H839.294Z" fill="#C4C4C4"/>
<path d="M1242.42 127.505C1214.04 150.6 1230.6 173.558 1242.42 182.15L1124.97 182.15V127.505L1242.42 127.505Z" fill="#C4C4C4"/>
<rect x="914.537" y="127.505" width="231.234" height="54.6452" fill="#C4C4C4"/>
<path d="M828.282 366.495C856.666 343.4 840.109 320.442 828.282 311.85H945.734V366.495H828.282Z" fill="#C4C4C4"/>
<path d="M1231.41 311.85C1203.03 334.945 1219.59 357.903 1231.41 366.495H1113.96V311.85H1231.41Z" fill="#C4C4C4"/>
<rect x="903.525" y="311.85" width="231.234" height="54.6452" fill="#C4C4C4"/>
<rect x="239.052" y="524.629" width="48" height="162" rx="24" transform="rotate(-20.5 239.052 524.629)" fill="#2687CE"/>
<rect x="1152" y="524.81" width="48" height="162" rx="24" transform="rotate(-20.5 1152 524.81)" fill="#2687CE"/>
<rect x="745" y="524.81" width="48" height="162" rx="24" transform="rotate(-20.5 745 524.81)" fill="#2687CE"/>
<rect x="1000" y="742.854" width="48" height="162" rx="24" transform="rotate(-21.8359 1000 742.854)" fill="#2687CE"/>
<path d="M769.913 842.507L489 544.494L658.466 796.746L596.401 820.865L918.882 1197.25L708.537 866.358L769.913 842.507Z" fill="#FFF500"/>
</svg>
